<mxfile host="app.diagrams.net" agent="Mozilla/5.0 (Windows NT 10.0; Win64; x64) AppleWebKit/537.36 (KHTML, like Gecko) Chrome/138.0.0.0 Safari/537.36" version="28.0.7">
  <diagram name="Page-1" id="K68q-duM5MQ3ddNzpvMN">
    <mxGraphModel dx="1981" dy="2084" grid="1" gridSize="10" guides="1" tooltips="1" connect="1" arrows="1" fold="1" page="1" pageScale="1" pageWidth="850" pageHeight="1100" math="0" shadow="0">
      <root>
        <mxCell id="0" />
        <mxCell id="1" parent="0" />
        <mxCell id="uAbFrbXKKTGK7Z-i2dLk-3" value="" style="edgeStyle=orthogonalEdgeStyle;rounded=0;orthogonalLoop=1;jettySize=auto;html=1;" edge="1" parent="1" source="uAbFrbXKKTGK7Z-i2dLk-1" target="uAbFrbXKKTGK7Z-i2dLk-2">
          <mxGeometry relative="1" as="geometry" />
        </mxCell>
        <mxCell id="uAbFrbXKKTGK7Z-i2dLk-1" value="nhs-main-nudge-inbound-event-queue" style="sketch=0;points=[[0,0,0],[0.25,0,0],[0.5,0,0],[0.75,0,0],[1,0,0],[0,1,0],[0.25,1,0],[0.5,1,0],[0.75,1,0],[1,1,0],[0,0.25,0],[0,0.5,0],[0,0.75,0],[1,0.25,0],[1,0.5,0],[1,0.75,0]];outlineConnect=0;fontColor=#232F3E;fillColor=#E7157B;strokeColor=#ffffff;dashed=0;verticalLabelPosition=bottom;verticalAlign=top;align=center;html=1;fontSize=12;fontStyle=0;aspect=fixed;shape=mxgraph.aws4.resourceIcon;resIcon=mxgraph.aws4.sqs;" vertex="1" parent="1">
          <mxGeometry x="-20" y="320" width="78" height="78" as="geometry" />
        </mxCell>
        <mxCell id="uAbFrbXKKTGK7Z-i2dLk-7" value="" style="edgeStyle=orthogonalEdgeStyle;rounded=0;orthogonalLoop=1;jettySize=auto;html=1;" edge="1" parent="1" source="uAbFrbXKKTGK7Z-i2dLk-2" target="uAbFrbXKKTGK7Z-i2dLk-4">
          <mxGeometry relative="1" as="geometry" />
        </mxCell>
        <mxCell id="uAbFrbXKKTGK7Z-i2dLk-12" value="" style="edgeStyle=orthogonalEdgeStyle;rounded=0;orthogonalLoop=1;jettySize=auto;html=1;" edge="1" parent="1" source="uAbFrbXKKTGK7Z-i2dLk-2" target="uAbFrbXKKTGK7Z-i2dLk-10">
          <mxGeometry relative="1" as="geometry" />
        </mxCell>
        <mxCell id="uAbFrbXKKTGK7Z-i2dLk-2" value="nhs-main-nudge-event-command-transformer" style="outlineConnect=0;dashed=0;verticalLabelPosition=bottom;verticalAlign=top;align=center;html=1;shape=mxgraph.aws3.lambda_function;fillColor=#F58534;gradientColor=none;" vertex="1" parent="1">
          <mxGeometry x="220" y="323" width="69" height="72" as="geometry" />
        </mxCell>
        <mxCell id="uAbFrbXKKTGK7Z-i2dLk-8" value="" style="edgeStyle=orthogonalEdgeStyle;rounded=0;orthogonalLoop=1;jettySize=auto;html=1;" edge="1" parent="1" source="uAbFrbXKKTGK7Z-i2dLk-4" target="uAbFrbXKKTGK7Z-i2dLk-5">
          <mxGeometry relative="1" as="geometry" />
        </mxCell>
        <mxCell id="uAbFrbXKKTGK7Z-i2dLk-4" value="nhs-main-nudge-command-queue" style="sketch=0;points=[[0,0,0],[0.25,0,0],[0.5,0,0],[0.75,0,0],[1,0,0],[0,1,0],[0.25,1,0],[0.5,1,0],[0.75,1,0],[1,1,0],[0,0.25,0],[0,0.5,0],[0,0.75,0],[1,0.25,0],[1,0.5,0],[1,0.75,0]];outlineConnect=0;fontColor=#232F3E;fillColor=#E7157B;strokeColor=#ffffff;dashed=0;verticalLabelPosition=bottom;verticalAlign=top;align=center;html=1;fontSize=12;fontStyle=0;aspect=fixed;shape=mxgraph.aws4.resourceIcon;resIcon=mxgraph.aws4.sqs;" vertex="1" parent="1">
          <mxGeometry x="440" y="320" width="78" height="78" as="geometry" />
        </mxCell>
        <mxCell id="uAbFrbXKKTGK7Z-i2dLk-9" value="" style="edgeStyle=orthogonalEdgeStyle;rounded=0;orthogonalLoop=1;jettySize=auto;html=1;" edge="1" parent="1" source="uAbFrbXKKTGK7Z-i2dLk-5" target="uAbFrbXKKTGK7Z-i2dLk-6">
          <mxGeometry relative="1" as="geometry" />
        </mxCell>
        <mxCell id="uAbFrbXKKTGK7Z-i2dLk-13" value="" style="edgeStyle=orthogonalEdgeStyle;rounded=0;orthogonalLoop=1;jettySize=auto;html=1;" edge="1" parent="1" source="uAbFrbXKKTGK7Z-i2dLk-5" target="uAbFrbXKKTGK7Z-i2dLk-11">
          <mxGeometry relative="1" as="geometry" />
        </mxCell>
        <mxCell id="uAbFrbXKKTGK7Z-i2dLk-5" value="nhs-main-nudge-command-processor" style="outlineConnect=0;dashed=0;verticalLabelPosition=bottom;verticalAlign=top;align=center;html=1;shape=mxgraph.aws3.lambda_function;fillColor=#F58534;gradientColor=none;" vertex="1" parent="1">
          <mxGeometry x="640" y="323" width="69" height="72" as="geometry" />
        </mxCell>
        <mxCell id="uAbFrbXKKTGK7Z-i2dLk-6" value="NHS Notify" style="aspect=fixed;sketch=0;html=1;dashed=0;whitespace=wrap;verticalLabelPosition=bottom;verticalAlign=top;fillColor=#2875E2;strokeColor=#ffffff;points=[[0.005,0.63,0],[0.1,0.2,0],[0.9,0.2,0],[0.5,0,0],[0.995,0.63,0],[0.72,0.99,0],[0.5,1,0],[0.28,0.99,0]];shape=mxgraph.kubernetes.icon2;kubernetesLabel=1;prIcon=api" vertex="1" parent="1">
          <mxGeometry x="800" y="335" width="50" height="48" as="geometry" />
        </mxCell>
        <mxCell id="uAbFrbXKKTGK7Z-i2dLk-10" value="nhs-main-nudge-inbound-event-dlq" style="sketch=0;points=[[0,0,0],[0.25,0,0],[0.5,0,0],[0.75,0,0],[1,0,0],[0,1,0],[0.25,1,0],[0.5,1,0],[0.75,1,0],[1,1,0],[0,0.25,0],[0,0.5,0],[0,0.75,0],[1,0.25,0],[1,0.5,0],[1,0.75,0]];outlineConnect=0;fontColor=#232F3E;fillColor=#E7157B;strokeColor=#ffffff;dashed=0;verticalLabelPosition=bottom;verticalAlign=top;align=center;html=1;fontSize=12;fontStyle=0;aspect=fixed;shape=mxgraph.aws4.resourceIcon;resIcon=mxgraph.aws4.sqs;" vertex="1" parent="1">
          <mxGeometry x="215.5" y="480" width="78" height="78" as="geometry" />
        </mxCell>
        <mxCell id="uAbFrbXKKTGK7Z-i2dLk-11" value="nhs-main-nudge-command-dlq" style="sketch=0;points=[[0,0,0],[0.25,0,0],[0.5,0,0],[0.75,0,0],[1,0,0],[0,1,0],[0.25,1,0],[0.5,1,0],[0.75,1,0],[1,1,0],[0,0.25,0],[0,0.5,0],[0,0.75,0],[1,0.25,0],[1,0.5,0],[1,0.75,0]];outlineConnect=0;fontColor=#232F3E;fillColor=#E7157B;strokeColor=#ffffff;dashed=0;verticalLabelPosition=bottom;verticalAlign=top;align=center;html=1;fontSize=12;fontStyle=0;aspect=fixed;shape=mxgraph.aws4.resourceIcon;resIcon=mxgraph.aws4.sqs;" vertex="1" parent="1">
          <mxGeometry x="635.5" y="480" width="78" height="78" as="geometry" />
        </mxCell>
        <mxCell id="uAbFrbXKKTGK7Z-i2dLk-22" style="edgeStyle=orthogonalEdgeStyle;rounded=0;orthogonalLoop=1;jettySize=auto;html=1;exitX=1;exitY=0.5;exitDx=0;exitDy=0;exitPerimeter=0;" edge="1" parent="1" source="uAbFrbXKKTGK7Z-i2dLk-14" target="uAbFrbXKKTGK7Z-i2dLk-20">
          <mxGeometry relative="1" as="geometry" />
        </mxCell>
        <mxCell id="uAbFrbXKKTGK7Z-i2dLk-24" style="edgeStyle=orthogonalEdgeStyle;rounded=0;orthogonalLoop=1;jettySize=auto;html=1;" edge="1" parent="1" source="uAbFrbXKKTGK7Z-i2dLk-14" target="uAbFrbXKKTGK7Z-i2dLk-21">
          <mxGeometry relative="1" as="geometry" />
        </mxCell>
        <mxCell id="uAbFrbXKKTGK7Z-i2dLk-14" value="nhs-main-nudge-apim-key-generation" style="outlineConnect=0;dashed=0;verticalLabelPosition=bottom;verticalAlign=top;align=center;html=1;shape=mxgraph.aws3.lambda_function;fillColor=#F58534;gradientColor=none;" vertex="1" parent="1">
          <mxGeometry x="50" y="80" width="69" height="72" as="geometry" />
        </mxCell>
        <mxCell id="uAbFrbXKKTGK7Z-i2dLk-32" style="edgeStyle=orthogonalEdgeStyle;rounded=0;orthogonalLoop=1;jettySize=auto;html=1;exitX=1;exitY=0.5;exitDx=0;exitDy=0;exitPerimeter=0;" edge="1" parent="1" source="uAbFrbXKKTGK7Z-i2dLk-15" target="uAbFrbXKKTGK7Z-i2dLk-29">
          <mxGeometry relative="1" as="geometry" />
        </mxCell>
        <mxCell id="uAbFrbXKKTGK7Z-i2dLk-35" style="edgeStyle=orthogonalEdgeStyle;rounded=0;orthogonalLoop=1;jettySize=auto;html=1;exitX=0.855;exitY=0.145;exitDx=0;exitDy=0;exitPerimeter=0;" edge="1" parent="1" source="uAbFrbXKKTGK7Z-i2dLk-15" target="uAbFrbXKKTGK7Z-i2dLk-34">
          <mxGeometry relative="1" as="geometry" />
        </mxCell>
        <mxCell id="uAbFrbXKKTGK7Z-i2dLk-15" value="nhs-main-nudge-apim-refresh-token" style="outlineConnect=0;dashed=0;verticalLabelPosition=bottom;verticalAlign=top;align=center;html=1;shape=mxgraph.aws3.lambda_function;fillColor=#F58534;gradientColor=none;" vertex="1" parent="1">
          <mxGeometry x="590" y="80" width="69" height="72" as="geometry" />
        </mxCell>
        <mxCell id="uAbFrbXKKTGK7Z-i2dLk-17" value="" style="edgeStyle=orthogonalEdgeStyle;rounded=0;orthogonalLoop=1;jettySize=auto;html=1;" edge="1" parent="1" source="uAbFrbXKKTGK7Z-i2dLk-16" target="uAbFrbXKKTGK7Z-i2dLk-14">
          <mxGeometry relative="1" as="geometry" />
        </mxCell>
        <mxCell id="uAbFrbXKKTGK7Z-i2dLk-16" value="cron trigger" style="html=1;shape=mxgraph.infographic.ribbonSimple;notch1=20;notch2=0;align=center;verticalAlign=middle;fontSize=14;fontStyle=0;flipH=1;fillColor=#FFFFFF;whiteSpace=wrap;" vertex="1" parent="1">
          <mxGeometry x="-180" y="96" width="160" height="40" as="geometry" />
        </mxCell>
        <mxCell id="uAbFrbXKKTGK7Z-i2dLk-19" value="" style="edgeStyle=orthogonalEdgeStyle;rounded=0;orthogonalLoop=1;jettySize=auto;html=1;" edge="1" parent="1" source="uAbFrbXKKTGK7Z-i2dLk-18" target="uAbFrbXKKTGK7Z-i2dLk-15">
          <mxGeometry relative="1" as="geometry" />
        </mxCell>
        <mxCell id="uAbFrbXKKTGK7Z-i2dLk-18" value="cron trigger" style="html=1;shape=mxgraph.infographic.ribbonSimple;notch1=20;notch2=0;align=center;verticalAlign=middle;fontSize=14;fontStyle=0;flipH=1;fillColor=#FFFFFF;whiteSpace=wrap;" vertex="1" parent="1">
          <mxGeometry x="345" y="96" width="160" height="40" as="geometry" />
        </mxCell>
        <mxCell id="uAbFrbXKKTGK7Z-i2dLk-20" value="Private Key" style="sketch=0;outlineConnect=0;fontColor=#232F3E;gradientColor=none;fillColor=#E7157B;strokeColor=none;dashed=0;verticalLabelPosition=bottom;verticalAlign=top;align=center;html=1;fontSize=12;fontStyle=0;aspect=fixed;pointerEvents=1;shape=mxgraph.aws4.parameter_store;" vertex="1" parent="1">
          <mxGeometry x="240" y="-30" width="75" height="78" as="geometry" />
        </mxCell>
        <mxCell id="uAbFrbXKKTGK7Z-i2dLk-26" value="" style="edgeStyle=orthogonalEdgeStyle;rounded=0;orthogonalLoop=1;jettySize=auto;html=1;" edge="1" parent="1" source="uAbFrbXKKTGK7Z-i2dLk-21" target="uAbFrbXKKTGK7Z-i2dLk-25">
          <mxGeometry relative="1" as="geometry" />
        </mxCell>
        <mxCell id="uAbFrbXKKTGK7Z-i2dLk-21" value="Public Key" style="sketch=0;outlineConnect=0;fontColor=#232F3E;gradientColor=none;strokeColor=#ffffff;fillColor=#232F3E;dashed=0;verticalLabelPosition=middle;verticalAlign=bottom;align=center;html=1;whiteSpace=wrap;fontSize=10;fontStyle=1;spacing=3;shape=mxgraph.aws4.productIcon;prIcon=mxgraph.aws4.s3;" vertex="1" parent="1">
          <mxGeometry x="44.5" y="-150" width="80" height="100" as="geometry" />
        </mxCell>
        <mxCell id="uAbFrbXKKTGK7Z-i2dLk-23" style="edgeStyle=orthogonalEdgeStyle;rounded=0;orthogonalLoop=1;jettySize=auto;html=1;entryX=0.5;entryY=0;entryDx=0;entryDy=0;entryPerimeter=0;" edge="1" parent="1" source="uAbFrbXKKTGK7Z-i2dLk-20" target="uAbFrbXKKTGK7Z-i2dLk-15">
          <mxGeometry relative="1" as="geometry" />
        </mxCell>
        <mxCell id="uAbFrbXKKTGK7Z-i2dLk-25" value="Amazon Cloudfront" style="sketch=0;outlineConnect=0;fontColor=#232F3E;gradientColor=none;strokeColor=#ffffff;fillColor=#232F3E;dashed=0;verticalLabelPosition=middle;verticalAlign=bottom;align=center;html=1;whiteSpace=wrap;fontSize=10;fontStyle=1;spacing=3;shape=mxgraph.aws4.productIcon;prIcon=mxgraph.aws4.cloudfront;" vertex="1" parent="1">
          <mxGeometry x="170" y="-155" width="80" height="110" as="geometry" />
        </mxCell>
        <mxCell id="uAbFrbXKKTGK7Z-i2dLk-28" style="edgeStyle=orthogonalEdgeStyle;rounded=0;orthogonalLoop=1;jettySize=auto;html=1;exitX=0.5;exitY=1;exitDx=0;exitDy=0;exitPerimeter=0;" edge="1" parent="1" source="uAbFrbXKKTGK7Z-i2dLk-27" target="uAbFrbXKKTGK7Z-i2dLk-25">
          <mxGeometry relative="1" as="geometry" />
        </mxCell>
        <mxCell id="uAbFrbXKKTGK7Z-i2dLk-27" value="Alias" style="outlineConnect=0;dashed=0;verticalLabelPosition=bottom;verticalAlign=top;align=center;html=1;shape=mxgraph.aws3.route_53;fillColor=#F58536;gradientColor=none;" vertex="1" parent="1">
          <mxGeometry x="174.75" y="-280" width="70.5" height="85.5" as="geometry" />
        </mxCell>
        <mxCell id="uAbFrbXKKTGK7Z-i2dLk-29" value="APIM Token" style="sketch=0;outlineConnect=0;fontColor=#232F3E;gradientColor=none;fillColor=#E7157B;strokeColor=none;dashed=0;verticalLabelPosition=bottom;verticalAlign=top;align=center;html=1;fontSize=12;fontStyle=0;aspect=fixed;pointerEvents=1;shape=mxgraph.aws4.parameter_store;" vertex="1" parent="1">
          <mxGeometry x="713.5" y="170" width="75" height="78" as="geometry" />
        </mxCell>
        <mxCell id="uAbFrbXKKTGK7Z-i2dLk-33" style="edgeStyle=orthogonalEdgeStyle;rounded=0;orthogonalLoop=1;jettySize=auto;html=1;entryX=0.5;entryY=0;entryDx=0;entryDy=0;entryPerimeter=0;" edge="1" parent="1" source="uAbFrbXKKTGK7Z-i2dLk-29" target="uAbFrbXKKTGK7Z-i2dLk-5">
          <mxGeometry relative="1" as="geometry" />
        </mxCell>
        <mxCell id="uAbFrbXKKTGK7Z-i2dLk-34" value="APIM Auth" style="aspect=fixed;sketch=0;html=1;dashed=0;whitespace=wrap;verticalLabelPosition=bottom;verticalAlign=top;fillColor=#2875E2;strokeColor=#ffffff;points=[[0.005,0.63,0],[0.1,0.2,0],[0.9,0.2,0],[0.5,0,0],[0.995,0.63,0],[0.72,0.99,0],[0.5,1,0],[0.28,0.99,0]];shape=mxgraph.kubernetes.icon2;kubernetesLabel=1;prIcon=api" vertex="1" parent="1">
          <mxGeometry x="738.5" y="-15" width="50" height="48" as="geometry" />
        </mxCell>
      </root>
    </mxGraphModel>
  </diagram>
</mxfile>
